<svg width="131" height="37" viewBox="0 0 131 37" fill="none" xmlns="http://www.w3.org/2000/svg">
<rect x="0.5" y="0.5" width="130" height="36" fill="white"/>
<rect x="0.5" y="0.5" width="130" height="36" stroke="#1E90FF"/>
<path d="M6.94815 14V3.09091H11.2521C12.0795 3.09091 12.7844 3.24893 13.3668 3.56499C13.9492 3.87749 14.3931 4.3125 14.6985 4.87003C15.0075 5.42401 15.1619 6.06321 15.1619 6.78764C15.1619 7.51207 15.0057 8.15128 14.6932 8.70526C14.3807 9.25923 13.9279 9.6907 13.3349 9.99964C12.7454 10.3086 12.0316 10.4631 11.1935 10.4631H8.45028V8.6147H10.8207C11.2646 8.6147 11.6303 8.53835 11.918 8.38565C12.2092 8.2294 12.4258 8.01456 12.5678 7.74112C12.7134 7.46413 12.7862 7.14631 12.7862 6.78764C12.7862 6.42543 12.7134 6.10937 12.5678 5.83949C12.4258 5.56605 12.2092 5.35476 11.918 5.20561C11.6268 5.05291 11.2575 4.97656 10.81 4.97656H9.25462V14H6.94815ZM6.94815 21.0909H9.79261L12.7969 28.4205H12.9247L15.929 21.0909H18.7734V32H16.5362V24.8995H16.4457L13.6225 31.9467H12.0991L9.27592 24.8729H9.18537V32H6.94815V21.0909Z" fill="#1E90FF"/>
<path d="M16.7826 14V5.81818H18.322V7.1179H18.4072C18.5564 6.67756 18.8192 6.33132 19.1956 6.07919C19.5756 5.82351 20.0052 5.69567 20.4846 5.69567C20.5841 5.69567 20.7013 5.69922 20.8362 5.70632C20.9747 5.71342 21.083 5.7223 21.1611 5.73295V7.25639C21.0972 7.23864 20.9836 7.21911 20.8202 7.1978C20.6569 7.17294 20.4935 7.16051 20.3302 7.16051C19.9537 7.16051 19.6182 7.24041 19.3234 7.40021C19.0322 7.55646 18.8014 7.77486 18.6309 8.0554C18.4605 8.33239 18.3753 8.64844 18.3753 9.00355V14H16.7826ZM25.7727 14.1651C24.9666 14.1651 24.2724 13.9929 23.69 13.6484C23.1112 13.3004 22.6637 12.8121 22.3477 12.1836C22.0352 11.5515 21.8789 10.8111 21.8789 9.96236C21.8789 9.12429 22.0352 8.38565 22.3477 7.74645C22.6637 7.10724 23.104 6.60831 23.6687 6.24964C24.2369 5.89098 24.9009 5.71165 25.6609 5.71165C26.1225 5.71165 26.57 5.788 27.0032 5.9407C27.4364 6.09339 27.8253 6.3331 28.1697 6.6598C28.5142 6.98651 28.7859 7.41087 28.9847 7.93288C29.1836 8.45135 29.283 9.08168 29.283 9.82386V10.3885H22.7791V9.19531H27.7223C27.7223 8.77628 27.6371 8.40518 27.4666 8.08203C27.2962 7.75533 27.0565 7.49787 26.7475 7.30966C26.4421 7.12145 26.0835 7.02734 25.6715 7.02734C25.2241 7.02734 24.8335 7.13743 24.4996 7.3576C24.1694 7.57422 23.9137 7.85831 23.7326 8.20987C23.555 8.55788 23.4663 8.93608 23.4663 9.34446V10.2766C23.4663 10.8235 23.5621 11.2887 23.7539 11.6722C23.9492 12.0558 24.2209 12.3487 24.5689 12.5511C24.9169 12.75 25.3235 12.8494 25.7887 12.8494C26.0906 12.8494 26.3658 12.8068 26.6143 12.7216C26.8629 12.6328 27.0778 12.5014 27.2589 12.3274C27.44 12.1534 27.5785 11.9386 27.6744 11.6829L29.1818 11.9545C29.0611 12.3984 28.8445 12.7873 28.532 13.1211C28.223 13.4513 27.8342 13.7088 27.3654 13.8935C26.9002 14.0746 26.3693 14.1651 25.7727 14.1651ZM37.8151 5.81818L34.8481 14H33.1436L30.1713 5.81818H31.8811L33.9532 12.1143H34.0384L36.1052 5.81818H37.8151ZM42.5598 14.1651C41.7537 14.1651 41.0595 13.9929 40.4771 13.6484C39.8983 13.3004 39.4508 12.8121 39.1348 12.1836C38.8223 11.5515 38.666 10.8111 38.666 9.96236C38.666 9.12429 38.8223 8.38565 39.1348 7.74645C39.4508 7.10724 39.8912 6.60831 40.4558 6.24964C41.024 5.89098 41.688 5.71165 42.448 5.71165C42.9096 5.71165 43.3571 5.788 43.7903 5.9407C44.2235 6.09339 44.6124 6.3331 44.9569 6.6598C45.3013 6.98651 45.573 7.41087 45.7718 7.93288C45.9707 8.45135 46.0701 9.08168 46.0701 9.82386V10.3885H39.5662V9.19531H44.5094C44.5094 8.77628 44.4242 8.40518 44.2537 8.08203C44.0833 7.75533 43.8436 7.49787 43.5346 7.30966C43.2292 7.12145 42.8706 7.02734 42.4586 7.02734C42.0112 7.02734 41.6206 7.13743 41.2868 7.3576C40.9565 7.57422 40.7008 7.85831 40.5197 8.20987C40.3422 8.55788 40.2534 8.93608 40.2534 9.34446V10.2766C40.2534 10.8235 40.3493 11.2887 40.541 11.6722C40.7363 12.0558 41.008 12.3487 41.356 12.5511C41.704 12.75 42.1106 12.8494 42.5758 12.8494C42.8777 12.8494 43.1529 12.8068 43.4015 12.7216C43.65 12.6328 43.8649 12.5014 44.046 12.3274C44.2271 12.1534 44.3656 11.9386 44.4615 11.6829L45.9689 11.9545C45.8482 12.3984 45.6316 12.7873 45.3191 13.1211C45.0101 13.4513 44.6213 13.7088 44.1525 13.8935C43.6873 14.0746 43.1564 14.1651 42.5598 14.1651ZM47.6668 14V12.908L52.0986 7.2777V7.20312H47.8106V5.81818H54.0855V6.9794L49.8241 12.5405V12.6151H54.2346V14H47.6668ZM56.1136 14V5.81818H57.7063V14H56.1136ZM56.918 4.55575C56.641 4.55575 56.4031 4.46342 56.2042 4.27876C56.0089 4.09055 55.9112 3.86683 55.9112 3.6076C55.9112 3.34482 56.0089 3.12109 56.2042 2.93643C56.4031 2.74822 56.641 2.65412 56.918 2.65412C57.195 2.65412 57.4311 2.74822 57.6264 2.93643C57.8253 3.12109 57.9247 3.34482 57.9247 3.6076C57.9247 3.86683 57.8253 4.09055 57.6264 4.27876C57.4311 4.46342 57.195 4.55575 56.918 4.55575ZM24.3225 32.1651C23.5164 32.1651 22.8222 31.9929 22.2398 31.6484C21.661 31.3004 21.2135 30.8121 20.8975 30.1836C20.585 29.5515 20.4287 28.8111 20.4287 27.9624C20.4287 27.1243 20.585 26.3857 20.8975 25.7464C21.2135 25.1072 21.6539 24.6083 22.2185 24.2496C22.7867 23.891 23.4507 23.7116 24.2107 23.7116C24.6723 23.7116 25.1198 23.788 25.553 23.9407C25.9862 24.0934 26.3751 24.3331 26.7195 24.6598C27.064 24.9865 27.3357 25.4109 27.5345 25.9329C27.7334 26.4513 27.8328 27.0817 27.8328 27.8239V28.3885H21.3289V27.1953H26.2721C26.2721 26.7763 26.1869 26.4052 26.0164 26.082C25.846 25.7553 25.6063 25.4979 25.2973 25.3097C24.9919 25.1214 24.6333 25.0273 24.2213 25.0273C23.7739 25.0273 23.3833 25.1374 23.0494 25.3576C22.7192 25.5742 22.4635 25.8583 22.2824 26.2099C22.1048 26.5579 22.0161 26.9361 22.0161 27.3445V28.2766C22.0161 28.8235 22.1119 29.2887 22.3037 29.6722C22.499 30.0558 22.7707 30.3487 23.1187 30.5511C23.4667 30.75 23.8733 30.8494 24.3385 30.8494C24.6404 30.8494 24.9156 30.8068 25.1642 30.7216C25.4127 30.6328 25.6276 30.5014 25.8087 30.3274C25.9898 30.1534 26.1283 29.9386 26.2242 29.6829L27.7316 29.9545C27.6109 30.3984 27.3943 30.7873 27.0818 31.1211C26.7728 31.4513 26.384 31.7088 25.9152 31.8935C25.45 32.0746 24.9191 32.1651 24.3225 32.1651Z" fill="black"/>
<line x1="71.5" y1="6.55671e-08" x2="71.5" y2="37" stroke="black" stroke-width="3"/>
<path d="M81.5909 7.72727L88.0682 26.6818H88.3295L94.8068 7.72727H98.6023L90.2273 31H86.1705L77.7955 7.72727H81.5909ZM109.747 31.3182C108.187 31.3182 106.793 31.0492 105.565 30.5114C104.346 29.9735 103.38 29.2273 102.668 28.2727C101.963 27.3106 101.584 26.197 101.531 24.9318H105.099C105.145 25.6212 105.376 26.2197 105.793 26.7273C106.217 27.2273 106.77 27.6136 107.452 27.8864C108.134 28.1591 108.891 28.2955 109.724 28.2955C110.641 28.2955 111.452 28.1364 112.156 27.8182C112.868 27.5 113.425 27.0568 113.827 26.4886C114.228 25.9129 114.429 25.25 114.429 24.5C114.429 23.7197 114.228 23.0341 113.827 22.4432C113.433 21.8447 112.853 21.375 112.088 21.0341C111.33 20.6932 110.414 20.5227 109.338 20.5227H107.372V17.6591H109.338C110.202 17.6591 110.959 17.5038 111.611 17.1932C112.27 16.8826 112.785 16.4508 113.156 15.8977C113.527 15.3371 113.713 14.6818 113.713 13.9318C113.713 13.2121 113.55 12.5871 113.224 12.0568C112.906 11.5189 112.452 11.0985 111.861 10.7955C111.277 10.4924 110.588 10.3409 109.793 10.3409C109.035 10.3409 108.327 10.4811 107.668 10.7614C107.016 11.0341 106.486 11.428 106.077 11.9432C105.668 12.4508 105.448 13.0606 105.418 13.7727H102.02C102.058 12.5152 102.429 11.4091 103.134 10.4545C103.846 9.5 104.785 8.75379 105.952 8.21591C107.118 7.67803 108.414 7.40909 109.838 7.40909C111.33 7.40909 112.618 7.70076 113.702 8.28409C114.793 8.85985 115.634 9.62879 116.224 10.5909C116.823 11.553 117.118 12.6061 117.111 13.75C117.118 15.053 116.755 16.1591 116.02 17.0682C115.293 17.9773 114.323 18.5871 113.111 18.8977V19.0795C114.656 19.3144 115.853 19.928 116.702 20.9205C117.558 21.9129 117.982 23.1439 117.974 24.6136C117.982 25.8939 117.626 27.0417 116.906 28.0568C116.194 29.072 115.221 29.8712 113.986 30.4545C112.751 31.0303 111.338 31.3182 109.747 31.3182Z" fill="#1E90FF"/>
</svg>
